<?xml version="1.0" encoding="iso-8859-1"?>
<!-- Generator: Adobe Illustrator 19.0.0, SVG Export Plug-In . SVG Version: 6.00 Build 0)  -->
<svg version="1.1" id="Layer_1" xmlns="http://www.w3.org/2000/svg" xmlns:xlink="http://www.w3.org/1999/xlink" x="0px" y="0px"
	 viewBox="0 0 512 512" style="enable-background:new 0 0 512 512;" xml:space="preserve">
<g>
	<g>
		<path d="M511.97,243.904c-0.216-3.277-1.236-6.539-3.041-9.549l-95.989-160C409.086,67.927,402.15,64,394.65,64H117.35
			c-7.499,0-14.436,3.927-18.289,10.354l-95.989,160c-1.806,3.01-2.825,6.269-3.041,9.546c-0.068,0.488,0,161.433,0,161.433
			C0.03,428.865,19.174,448,42.692,448h426.617c23.518,0,42.662-19.135,42.662-42.667
			C511.97,405.333,512.038,244.392,511.97,243.904z M405.316,234.667c-23.518,0-42.662,19.135-42.662,42.667
			c0,11.76-9.561,21.333-21.331,21.333H170.677c-11.769,0-21.331-9.573-21.331-21.333c0-23.531-19.144-42.667-42.662-42.667H52.637
			l76.794-128h253.137l76.794,128H405.316z"/>
	</g>
</g>
<g>
</g>
<g>
</g>
<g>
</g>
<g>
</g>
<g>
</g>
<g>
</g>
<g>
</g>
<g>
</g>
<g>
</g>
<g>
</g>
<g>
</g>
<g>
</g>
<g>
</g>
<g>
</g>
<g>
</g>
</svg>
